<?xml version="1.0" standalone="no"?><svg xmlns="http://www.w3.org/2000/svg" viewBox="0 0 1440 320"><path fill="#c9242b" fill-opacity="1" d="M0,160L30,149.3C60,139,120,117,180,133.3C240,149,300,203,360,192C420,181,480,107,540,117.3C600,128,660,224,720,234.7C780,245,840,171,900,160C960,149,1020,203,1080,234.7C1140,267,1200,277,1260,261.3C1320,245,1380,203,1410,181.3L1440,160L1440,320L1410,320C1380,320,1320,320,1260,320C1200,320,1140,320,1080,320C1020,320,960,320,900,320C840,320,780,320,720,320C660,320,600,320,540,320C480,320,420,320,360,320C300,320,240,320,180,320C120,320,60,320,30,320L0,320Z"></path></svg>